<svg width="128" height="128" viewBox="0 0 128 128" fill="none" xmlns="http://www.w3.org/2000/svg">
<path d="M58.3165 10H10.1275V10.0524H10.0085C10.0085 10.0524 10.221 39.3818 22.2598 61.3452C25.1659 56.7524 28.7352 52.5095 32.8787 48.7221C29.8114 40.5075 27.8566 32.0034 27.0549 23.386H27.2249V23.3187H59.1752C85.5311 23.3187 98.8452 37.1234 98.8452 63.9701C98.8452 90.8168 85.5651 104.629 59.1752 104.629H27.2249V103.948C29.3164 87.8554 34.7746 68.801 44.0927 61.9884C49.3554 58.1296 55.2133 56.3274 59.8893 56.3274C72.5572 56.3274 77.7434 63.2821 77.7434 63.2821C77.7434 63.2821 73.3649 70.6256 61.0626 70.4836C49.5085 70.3564 45.47 64.8002 45.47 64.8002C44.3999 65.8473 43.4221 66.9648 42.5454 68.1429C42.5454 68.1429 40.5049 71.2165 39.9268 72.2933C39.1786 73.6768 38.1584 76.3839 38.1584 76.3839C61.4197 89.8969 74.9632 81.6859 79.6478 79.8837C87.9372 76.6905 93.659 70.2443 93.5485 63.5363C93.3954 54.914 85.6417 50.1504 79.2057 47.0843C64.914 40.2268 45.266 42.9639 35.6078 50.4346C11.4028 69.13 10 118 10 118H58.325C98.335 118 118 97.6743 118 63.9925C118 30.3107 98.3265 10 58.3165 10Z" fill="#F6F2E6"/>
</svg>
