<svg width="256" height="256" viewBox="0 0 256 256" fill="none" xmlns="http://www.w3.org/2000/svg">
<path d="M116.633 20H20.2551V20.1047H20.017C20.017 20.1047 20.4421 78.7636 44.5196 122.69C50.3318 113.505 57.4703 105.019 65.7574 97.4441C59.6228 81.0151 55.7132 64.0068 54.1097 46.7719H54.4498V46.6373H118.35C171.062 46.6373 197.69 74.2468 197.69 127.94C197.69 181.634 171.13 209.258 118.35 209.258H54.4498V207.897C58.6328 175.711 69.5492 137.602 88.1855 123.977C98.7109 116.259 110.427 112.655 119.779 112.655C145.114 112.655 155.487 126.564 155.487 126.564C155.487 126.564 146.73 141.251 122.125 140.967C99.0169 140.713 90.9401 129.6 90.9401 129.6C88.7998 131.695 86.8443 133.93 85.0908 136.286C85.0908 136.286 81.0099 142.433 79.8536 144.587C78.3572 147.354 76.3168 152.768 76.3168 152.768C122.839 179.794 149.926 163.372 159.296 159.767C175.874 153.381 187.318 140.489 187.097 127.073C186.791 109.828 171.283 100.301 158.411 94.1687C129.828 80.4537 90.532 85.9277 71.2156 100.869C22.8056 138.26 20 236 20 236H116.65C196.67 236 236 195.349 236 127.985C236 60.6215 196.653 20 116.633 20Z" fill="#F6F2E6"/>
</svg>
