<svg width="64" height="64" viewBox="0 0 64 64" fill="none" xmlns="http://www.w3.org/2000/svg">
<path d="M29.1582 5H5.06377V5.02618H5.00425C5.00425 5.02618 5.11052 19.6909 11.1299 30.6726C12.583 28.3762 14.3676 26.2548 16.4393 24.361C14.9057 20.2538 13.9283 16.0017 13.5274 11.693H13.6125V11.6593H29.5876C42.7656 11.6593 49.4226 18.5617 49.4226 31.985C49.4226 45.4084 42.7826 52.3145 29.5876 52.3145H13.6125V51.9742C14.6582 43.9277 17.3873 34.4005 22.0464 30.9942C24.6777 29.0648 27.6066 28.1637 29.9447 28.1637C36.2786 28.1637 38.8717 31.641 38.8717 31.641C38.8717 31.641 36.6824 35.3128 30.5313 35.2418C24.7542 35.1782 22.735 32.4001 22.735 32.4001C22.1999 32.9237 21.7111 33.4824 21.2727 34.0714C21.2727 34.0714 20.2525 35.6082 19.9634 36.1467C19.5893 36.8384 19.0792 38.1919 19.0792 38.1919C30.7098 44.9485 37.4816 40.8429 39.8239 39.9418C43.9686 38.3452 46.8295 35.1221 46.7742 31.7682C46.6977 27.457 42.8208 25.0752 39.6029 23.5422C32.457 20.1134 22.633 21.4819 17.8039 25.2173C5.70141 34.565 5 59 5 59H29.1625C49.1675 59 59 48.8371 59 31.9963C59 15.1554 49.1633 5 29.1582 5Z" fill="#F6F2E6"/>
</svg>
